Title - Cool As Hell
Year - 2013
Language - English
Type - DVDRip

NOTES - Its a low-budget film so dont expect much...

IMDB - http://www.imdb.com/title/tt2355462/?ref_=sr_1

Rich and Benny are having trouble with the ladies, until they befriend a demon named Az. It's a non-stop party until a soul hungry beast leaps through an open portal from the underworld

General
Complete name                            : Cool As Hell [2013] DVDRip x264-SKAM3R.mp4
Format                                   : MPEG-4
Format profile                           : Base Media / Version 2
Codec ID                                 : mp42
File size                                : 635 MiB
Duration                                 : 1h 40mn
Overall bit rate mode                    : Variable
Overall bit rate                         : 885 Kbps
Encoded date                             : UTC 2013-03-29 18:53:38
Tagged date                              : UTC 2013-03-29 21:00:38
Writing application                      : HandBrake 0.9.8 2012071700

Video
ID                                       : 1
Format                                   : AVC
Format/Info                              : Advanced Video Codec
Format profile                           : Main@L3.0
Format settings, CABAC                   : Yes
Format settings, ReFrames                : 4 frames
Codec ID                                 : avc1
Codec ID/Info                            : Advanced Video Coding
Duration                                 : 1h 40mn
Bit rate mode                            : Variable
Bit rate                                 : 720 Kbps
Width                                    : 852 pixels
Height                                   : 480 pixels
Display aspect ratio                     : 16:9
Frame rate mode                          : Variable
Frame rate                               : 23.976 fps
Minimum frame rate                       : 23.810 fps
Maximum frame rate                       : 24.390 fps
Color space                              : YUV
Chroma subsampling                       : 4:2:0
Bit depth                                : 8 bits
Scan type                                : Progressive
Bits/(Pixel*Frame)                       : 0.073
Stream size                              : 517 MiB (81%)
Writing library                          : x264 core 120
Encoding settings                        : cabac=1 
Encoded date                             : UTC 2013-03-29 18:53:38
Tagged date                              : UTC 2013-03-29 21:00:38
Color primaries                          : BT.601 NTSC
Transfer characteristics                 : BT.709
Matrix coefficients                      : BT.601

Audio
ID                                       : 2
Format                                   : AAC
Format/Info                              : Advanced Audio Codec
Format profile                           : LC
Codec ID                                 : 40
Duration                                 : 1h 40mn
Bit rate mode                            : Variable
Bit rate                                 : 160 Kbps
Maximum bit rate                         : 314 Kbps
Channel(s)                               : 2 channels
Channel positions                        : Front: L R
Sampling rate                            : 44.1 KHz
Compression mode                         : Lossy
Delay relative to video                  : 83ms
Stream size                              : 115 MiB (18%)
Encoded date                             : UTC 2013-03-29 18:53:38
Tagged date                              : UTC 2013-03-29 21:00:38
 
http://imageshack.us/a/img842/2664/vlcsnap2013032914h05m27.png 
http://imageshack.us/a/img43/3483/vlcsnap2013032914h05m16.png 
http://imageshack.us/a/img14/585/vlcsnap2013032914h03m16.png 
http://imageshack.us/a/img442/7901/vlcsnap2013032914h03m02.png 
http://imageshack.us/a/img845/850/vlcsnap2013032914h02m44.png